<?xml version="1.0" encoding="utf-8"?>
<!-- Generator: Adobe Illustrator 16.0.0, SVG Export Plug-In . SVG Version: 6.00 Build 0)  -->
<!DOCTYPE svg PUBLIC "-//W3C//DTD SVG 1.1//EN" "http://www.w3.org/Graphics/SVG/1.1/DTD/svg11.dtd">
<svg version="1.1" id="Layer_1" xmlns="http://www.w3.org/2000/svg" xmlns:xlink="http://www.w3.org/1999/xlink" x="0px" y="0px"
	 width="219.158px" height="651.185px" viewBox="0 0 219.158 651.185" enable-background="new 0 0 219.158 651.185"
	 xml:space="preserve">
<path fill-rule="evenodd" clip-rule="evenodd" fill="#FFFFFF" d="M218.209,651.185c-10.15-2.166-19.577-4.146-28.99-6.191
	c-26.938-5.857-53.859-11.801-80.824-17.537c-3.42-0.727-5.297-2.32-7.102-5.303c-8.742-14.436-14.264-29.961-16.385-46.643
	c-1.133-8.9-2.578-17.924-2.204-26.82c0.827-19.695-3.292-38.646-6.546-57.818c-4.309-25.383-13.598-49.247-21.064-73.684
	c-6.797-22.241-13.069-44.669-15.055-67.993c-1.002-11.766-1.666-23.56-2.558-35.335c-1.646-21.724-2.854-43.495-5.209-65.143
	c-1.433-13.163-4.908-26.091-7.039-39.193c-2.476-15.229-5.688-30.475-6.464-45.82c-2.051-40.555-4.611-81.02-10.016-121.3
	C7.064,29.816,4.583,17.548,0.836,5.458C0.338,3.851,1.177,1.83,1.396,0c1.152,1.497,2.765,2.824,3.385,4.516
	c6.473,17.66,8.429,36.242,10.059,54.748c2.859,32.47,4.982,65.006,7.275,97.524c1.534,21.762,4.627,43.204,9.836,64.459
	c2.943,12.009,3.727,24.588,4.967,36.962c2.105,21.012,3.84,42.061,5.654,63.102c0.527,6.132,0.996,12.282,1.143,18.434
	c0.524,21.98,5.639,43.117,11.814,64.021c6.725,22.766,14.851,45.166,20.512,68.183c6.098,24.795,11.506,49.857,10.898,75.791
	c-0.387,16.52,2.021,32.973,6.784,48.746c2.649,8.775,7.835,16.822,12.255,24.992c0.719,1.328,3.344,1.891,5.2,2.297
	c35.044,7.686,70.108,15.275,105.146,22.988c1.291,0.285,2.349,1.627,3.515,2.477C219.2,650.001,218.562,650.765,218.209,651.185z"
	/>
</svg>
