<?xml version="1.0" encoding="utf-8"?>
<!-- Generator: Adobe Illustrator 16.0.0, SVG Export Plug-In . SVG Version: 6.00 Build 0)  -->
<!DOCTYPE svg PUBLIC "-//W3C//DTD SVG 1.1//EN" "http://www.w3.org/Graphics/SVG/1.1/DTD/svg11.dtd">
<svg version="1.1" id="Layer_1" xmlns="http://www.w3.org/2000/svg" xmlns:xlink="http://www.w3.org/1999/xlink" x="0px" y="0px"
	 width="336.166px" height="650.191px" viewBox="0 0 336.166 650.191" enable-background="new 0 0 336.166 650.191"
	 xml:space="preserve">
<path fill-rule="evenodd" clip-rule="evenodd" fill="#FFFFFF" d="M218.7,475.421c-20.323,8.184-39.477,15.896-58.629,23.609
	c0.036,0.483,0.073,0.966,0.109,1.449c40.979,8.312,81.959,16.622,122.938,24.934c-0.012,0.283-0.023,0.566-0.035,0.85
	c-17.137,2.699-34.272,5.407-51.411,8.097c-31.195,4.896-62.31,10.426-93.614,14.488c-31.843,4.133-61.029,17.033-91.494,25.684
	c-0.734,0.209-1.357,0.807-2.803,1.697c20.77,8.106,40.827,15.935,61.756,24.103c-2.25,1.199-3.749,2.078-5.312,2.819
	c-15.188,7.191-30.35,14.438-45.609,21.471c-3.275,1.51-4.519,3.066-3.256,6.782c1.652,4.863,2.775,9.923,3.835,14.96
	c0.241,1.147-0.712,2.545-1.116,3.828c-0.959-0.881-2.482-1.602-2.784-2.668c-1.848-6.547-3.333-13.196-5.12-19.763
	c-0.836-3.071,0.867-4.044,3.189-5.129c13.265-6.192,26.48-12.493,39.705-18.771c1.63-0.774,3.219-1.632,6.116-3.107
	c-21.839-8.533-42.6-16.644-64.583-25.233c5.215-1.758,9.324-3.196,13.467-4.532c21.508-6.935,42.842-14.502,64.604-20.52
	c13.541-3.744,27.705-5.305,41.639-7.539c31.177-4.997,62.385-9.801,93.579-14.689c4.874-0.764,9.743-1.559,14.614-2.339
	c0.009-0.427,0.017-0.854,0.024-1.28c-37.78-7.661-75.562-15.323-113.343-22.984c-0.07-0.326-0.141-0.651-0.211-0.978
	c19.859-8.002,39.72-16.004,60.907-24.541c-3.387-1.222-5.433-2.104-7.558-2.705c-43.529-12.335-86.436-26.46-128.19-43.983
	c-3.954-1.66-6.151-3.64-6.901-7.955c-1.277-7.341-3.144-14.578-4.88-22.389c36.302-8.148,72.227-16.211,109.495-24.576
	c-9.139-8.307-17.435-15.85-25.99-23.627c6.072-7.874,12.035-15.602,18.559-24.059c-34.271-8.968-67.713-17.719-101.156-26.469
	c0.023-0.294,0.047-0.588,0.069-0.883c79.728-7.87,159.457-15.74,239.185-23.609c0.037-0.43,0.074-0.86,0.111-1.291
	c-6.675-1.041-13.339-2.15-20.024-3.111c-32.085-4.613-64.176-9.189-96.265-13.772c-10.04-1.434-20.117-2.649-30.105-4.376
	c-3.634-0.629-7.061-2.456-10.58-3.743c-0.152-0.055-0.287-0.171-0.414-0.278c-20.348-17.327-44.211-26.95-69.984-32.991
	c-16.641-3.9-32.946-9.227-49.396-13.932c-0.922-0.264-1.799-0.689-3.357-1.297c6.345-3.771,12.475-6.828,17.961-10.78
	c19.068-13.735,40.639-20.44,63.486-24.58c19.93-3.612,39.617-8.567,59.402-12.968c1.234-0.275,2.391-0.897,3.555-2.282
	c-54.177-7.936-108.354-15.871-162.531-23.806c-0.027-0.271-0.057-0.542-0.084-0.814c25.623-8.487,51.246-16.974,76.869-25.46
	c0.293-0.501,0.586-1.003,0.878-1.504c-1.132-0.629-2.329-1.165-3.381-1.907c-2.586-1.823-4.976-3.956-7.673-5.585
	C51.225,81.877,39.748,68.12,28.832,53.735c-1.68-2.214-1.812-3.883-0.605-6.258c3.012-5.931,5.67-12.043,8.718-17.956
	c1.359-2.636,1.06-4.447-0.915-6.65C30.801,17.043,25.893,10.93,20.719,5.053C18.885,2.971,18.396,1.462,21.828,0
	c7.014,8.203,14.134,16.532,21.585,25.248c-3.07,6.495-5.858,13.227-9.381,19.549c-2.347,4.21-1.178,6.809,1.272,10.549
	c11.664,17.801,29.116,29,45.688,41.249c1.854,1.371,3.704,2.75,6.362,4.725c-23.176,7.69-45.56,15.118-67.942,22.545
	c0.021,0.481,0.044,0.962,0.065,1.444c56.084,8.216,112.169,16.432,168.254,24.648c0.028,0.194,0.056,0.388,0.084,0.583
	c-11.631,2.603-23.256,5.23-34.893,7.804c-27.575,6.098-55.161,12.148-82.727,18.294c-2.233,0.498-4.5,1.3-6.473,2.443
	c-10.37,6.012-20.656,12.17-30.954,18.307c-0.949,0.566-1.778,1.333-3.514,2.654c4.661,1.413,8.497,2.629,12.364,3.738
	c22.037,6.324,44.092,12.584,66.107,18.982c2.501,0.727,4.977,1.899,7.146,3.342c7.349,4.889,14.878,9.593,21.728,15.124
	c7.307,5.901,15.469,8.333,24.568,9.597c51.378,7.131,102.713,14.573,154.064,21.899c7.065,1.008,14.139,1.955,21.199,3.498
	c-84.173,8.312-168.346,16.623-252.52,24.935c-0.022,0.456-0.045,0.912-0.068,1.368c27.638,7.237,55.275,14.473,83.672,21.909
	c-6.828,8.826-13.206,17.07-20.061,25.931c9.464,8.604,18.828,17.116,29.049,26.407c-13.646,3.062-26.066,5.844-38.484,8.637
	c-23.502,5.285-46.988,10.648-70.523,15.785c-3.451,0.754-3.634,1.856-3.469,5.311c0.652,13.613,8.097,19.473,20.407,24.48
	c42.151,17.143,85.793,29.488,129.157,42.793C214.857,474.163,216.11,474.585,218.7,475.421z"/>
</svg>
